<svg width="25" height="25" viewBox="0 0 25 25" fill="none" xmlns="http://www.w3.org/2000/svg">
<path d="M12.5 8.00781C10 8.00781 8.00781 10.0391 8.00781 12.5C8.00781 15 10 16.9922 12.5 16.9922C14.9609 16.9922 16.9922 15 16.9922 12.5C16.9922 10.0391 14.9609 8.00781 12.5 8.00781ZM12.5 15.4297C10.8984 15.4297 9.57031 14.1406 9.57031 12.5C9.57031 10.8984 10.8594 9.60938 12.5 9.60938C14.1016 9.60938 15.3906 10.8984 15.3906 12.5C15.3906 14.1406 14.1016 15.4297 12.5 15.4297ZM18.2031 7.85156C18.2031 8.4375 17.7344 8.90625 17.1484 8.90625C16.5625 8.90625 16.0938 8.4375 16.0938 7.85156C16.0938 7.26562 16.5625 6.79688 17.1484 6.79688C17.7344 6.79688 18.2031 7.26562 18.2031 7.85156ZM21.1719 8.90625C21.0938 7.5 20.7812 6.25 19.7656 5.23438C18.75 4.21875 17.5 3.90625 16.0938 3.82812C14.6484 3.75 10.3125 3.75 8.86719 3.82812C7.46094 3.90625 6.25 4.21875 5.19531 5.23438C4.17969 6.25 3.86719 7.5 3.78906 8.90625C3.71094 10.3516 3.71094 14.6875 3.78906 16.1328C3.86719 17.5391 4.17969 18.75 5.19531 19.8047C6.25 20.8203 7.46094 21.1328 8.86719 21.2109C10.3125 21.2891 14.6484 21.2891 16.0938 21.2109C17.5 21.1328 18.75 20.8203 19.7656 19.8047C20.7812 18.75 21.0938 17.5391 21.1719 16.1328C21.25 14.6875 21.25 10.3516 21.1719 8.90625ZM19.2969 17.6562C19.0234 18.4375 18.3984 19.0234 17.6562 19.3359C16.4844 19.8047 13.75 19.6875 12.5 19.6875C11.2109 19.6875 8.47656 19.8047 7.34375 19.3359C6.5625 19.0234 5.97656 18.4375 5.66406 17.6562C5.19531 16.5234 5.3125 13.7891 5.3125 12.5C5.3125 11.25 5.19531 8.51562 5.66406 7.34375C5.97656 6.60156 6.5625 6.01562 7.34375 5.70312C8.47656 5.23438 11.2109 5.35156 12.5 5.35156C13.75 5.35156 16.4844 5.23438 17.6562 5.70312C18.3984 5.97656 18.9844 6.60156 19.2969 7.34375C19.7656 8.51562 19.6484 11.25 19.6484 12.5C19.6484 13.7891 19.7656 16.5234 19.2969 17.6562Z" fill="white"/>
</svg>
